# xmcd CD database file
#
# Track frame offsets:
#	150
#	35122
#	65384
#	91226
#	140995
#	171930
#	205262
#	246451
#	278236
#
# Disc length: 4040 seconds
#
# Revision: 0
# Processed by: cddbd v1.5.2PL0 Copyright (c) Steve Scherf et al.
# Submitted via: CDex 1.70beta2
#
DISCID=8e0fc609
DTITLE=McClure, Ron 6tet - Sunburst
DYEAR=1991
DGENRE=Jazz
TTITLE0=sunburst
TTITLE1=count your blessings
TTITLE2=no false idols
TTITLE3=renegade
TTITLE4=scorpitarius
TTITLE5=ray charles ives
TTITLE6=her warm touch
TTITLE7=flanny tommy gun
TTITLE8=shorts
EXTD=YEAR: 1991
EXTT0=
EXTT1=
EXTT2=
EXTT3=
EXTT4=
EXTT5=
EXTT6=
EXTT7=
EXTT8=
PLAYORDER=
